<mxfile host="app.diagrams.net" modified="2023-10-13T21:13:51.919Z" agent="Mozilla/5.0 (Windows NT 10.0; Win64; x64) AppleWebKit/537.36 (KHTML, like Gecko) Chrome/104.0.0.0 Safari/537.36" version="22.0.4" etag="rbT-H8w6ItMzPZW6E7Ko" type="github">
  <diagram name="PÃ¡gina-1" id="RXO7B-umboMxH9HtZHQa">
    <mxGraphModel>
      <root>
        <mxCell id="0" />
        <mxCell id="1" parent="0" />
      </root>
    </mxGraphModel>
  </diagram>
</mxfile>
